<?xml version="1.0" standalone="no"?>
<!DOCTYPE svg PUBLIC "-//W3C//DTD SVG 20010904//EN"
 "http://www.w3.org/TR/2001/REC-SVG-20010904/DTD/svg10.dtd">
<svg version="1.0" xmlns="http://www.w3.org/2000/svg"
 width="512.000000pt" height="512.000000pt" viewBox="0 0 512.000000 512.000000"
 preserveAspectRatio="xMidYMid meet">
<metadata>
Created by potrace 1.14, written by Peter Selinger 2001-2017
</metadata>
<g transform="translate(0.000000,512.000000) scale(0.100000,-0.100000)"
fill="#000000" stroke="none">
<path d="M0 4297 c0 -627 3 -826 12 -835 9 -9 9 -12 0 -12 -7 0 -12 -9 -12
-20 0 -11 3 -19 7 -19 21 3 34 -2 28 -11 -4 -6 -10 -8 -15 -5 -16 10 -20 -13
-5 -25 9 -8 13 -21 9 -32 -3 -11 1 -27 9 -36 28 -31 78 -150 89 -211 9 -45 9
-73 0 -109 -10 -46 -5 -85 19 -127 3 -5 5 -39 5 -74 -1 -61 -3 -65 -31 -82
-16 -10 -49 -18 -72 -18 l-43 -1 0 -1340 0 -1340 2260 0 c1790 0 2265 3 2282
13 12 6 35 24 51 40 17 15 32 25 35 22 3 -2 16 8 28 23 14 15 19 29 13 31 -6
2 -2 12 9 25 25 27 35 101 16 117 -11 9 -11 15 -3 25 8 10 8 14 0 14 -6 0 -11
11 -11 24 0 14 -4 28 -10 31 -13 8 -13 82 0 90 6 3 10 24 10 46 0 54 17 69 79
69 27 0 53 5 56 10 3 6 15 10 26 10 10 0 19 4 19 9 0 5 22 11 48 15 31 4 54
14 67 28 12 15 20 18 23 10 2 -8 25 -12 63 -12 l59 0 0 2240 0 2240 -2560 0
-2560 0 0 -823z m3356 -84 c-10 -10 -46 -11 -46 -1 0 4 12 8 27 8 14 0 23 -3
19 -7z m-61 -44 c-3 -8 -21 -25 -40 -38 -41 -27 -44 -39 -12 -45 12 -3 35 -7
50 -11 19 -4 37 1 56 14 33 24 65 32 125 34 31 2 42 -1 35 -9 -5 -6 -20 -10
-33 -9 -15 2 -23 -1 -20 -8 3 -8 -9 -12 -36 -11 -53 2 -65 -14 -46 -60 16 -39
12 -44 -19 -22 -24 16 -76 29 -74 19 6 -36 -10 -41 -54 -18 -15 8 -25 10 -22
6 3 -5 -2 -12 -11 -15 -8 -3 -12 -2 -9 4 3 5 -6 12 -20 16 -28 7 -32 25 -10
44 8 7 15 17 15 22 0 20 53 73 89 89 40 18 44 18 36 -2z m-698 -11 c-3 -8 -6
-5 -6 6 -1 11 2 17 5 13 3 -3 4 -12 1 -19z m437 -11 c18 -13 18 -15 2 -40 -10
-14 -27 -27 -39 -29 -14 -2 -22 -10 -22 -23 -1 -22 -24 -68 -25 -47 0 6 -5 12
-11 12 -6 0 -19 10 -29 23 -17 20 -19 20 -25 4 -4 -9 -2 -24 5 -32 11 -13 9
-13 -16 0 -16 8 -32 22 -36 32 -6 16 -7 15 -7 -4 -1 -35 -12 -57 -22 -42 -6
10 -11 10 -24 -1 -17 -14 -33 -24 -76 -48 -21 -12 -22 -11 -6 1 19 15 23 52 7
62 -37 23 16 74 107 102 153 47 187 52 217 30z m716 -50 c0 -20 -9 -25 -31
-20 -28 8 -24 33 6 33 14 0 25 -6 25 -13z m-1353 -103 c-3 -3 -12 -4 -19 -1
-8 3 -5 6 6 6 11 1 17 -2 13 -5z m68 -38 c-7 -42 -5 -45 22 -60 41 -21 68 -63
53 -81 -10 -12 -15 -12 -36 2 -15 10 -24 11 -24 4 0 -7 -11 -5 -27 6 -15 10
-24 13 -20 7 8 -14 -39 -10 -56 5 -17 14 -67 22 -67 10 0 -12 -21 -7 -38 9 -7
6 -21 13 -30 13 -49 3 -85 -1 -98 -11 -10 -9 -17 -10 -28 -1 -7 6 -20 9 -29 5
-8 -3 -18 -1 -21 5 -4 6 -13 8 -22 4 -13 -5 -12 -8 3 -26 10 -11 13 -17 6 -14
-6 4 -13 1 -16 -5 -3 -10 -7 -10 -20 0 -21 18 -43 6 -26 -14 9 -11 9 -14 -1
-14 -9 0 -7 -6 5 -20 10 -11 21 -17 26 -15 4 3 11 0 15 -6 4 -7 3 -9 -4 -5 -6
3 -13 2 -17 -4 -4 -6 -11 -8 -16 -4 -5 3 -7 9 -4 14 3 5 1 11 -4 14 -5 3 -12
-6 -15 -20 -5 -18 -1 -33 11 -47 18 -19 18 -20 -5 -6 -18 11 -25 11 -40 1 -9
-7 -28 -18 -42 -24 -35 -17 -36 -18 -20 -28 11 -7 6 -10 -20 -10 -28 0 -37 -5
-47 -27 -17 -35 -16 -48 2 -63 16 -13 21 -45 6 -35 -5 3 -13 0 -16 -6 -5 -7
-16 -2 -33 13 -14 13 -22 16 -17 8 6 -12 5 -13 -5 -3 -17 16 -2 85 36 169 15
32 26 63 25 67 -4 21 138 156 165 157 5 0 30 15 54 32 44 33 45 33 165 33 92
0 130 -4 163 -18 39 -16 45 -16 65 -2 12 8 18 15 14 15 -5 0 -5 5 -2 10 3 6
13 10 21 10 12 0 14 -9 9 -44z m1125 40 c0 -2 -7 -7 -16 -10 -8 -3 -12 -2 -9
4 6 10 25 14 25 6z m-580 -41 c0 -13 -4 -27 -10 -30 -6 -4 -10 8 -10 30 0 22
4 34 10 30 6 -3 10 -17 10 -30z m533 18 c-10 -28 -57 -83 -69 -83 -7 0 -14 6
-17 14 -6 15 11 36 28 36 6 0 22 11 35 25 28 30 32 31 23 8z m-1970 -104 c4
-16 3 -19 -5 -11 -9 9 -15 8 -26 0 -17 -15 -44 -20 -36 -7 3 5 9 7 14 4 5 -3
15 3 22 15 16 26 24 25 31 -1z m121 -14 c11 -8 14 -15 7 -15 -7 0 -9 -6 -6
-12 4 -7 -2 -3 -12 8 -17 19 -21 20 -29 7 -8 -13 -10 -12 -11 6 -2 25 22 28
51 6z m-103 -28 c-10 -9 -11 -8 -5 6 3 10 9 15 12 12 3 -3 0 -11 -7 -18z m494
14 c3 -5 2 -12 -3 -15 -5 -3 -9 1 -9 9 0 17 3 19 12 6z m1338 -13 c12 -7 38
-13 57 -14 19 -1 54 -5 78 -9 29 -5 42 -4 42 4 0 6 16 11 37 11 36 0 36 0 17
-18 -10 -11 -26 -18 -34 -18 -27 2 -23 -39 5 -52 17 -8 25 -19 25 -37 0 -30
-13 -32 -42 -5 -12 10 -26 16 -32 13 -6 -3 -8 -2 -3 2 9 10 -31 55 -50 55 -7
0 -13 -11 -13 -24 0 -14 -4 -27 -9 -30 -13 -8 -34 21 -27 39 3 9 0 15 -10 15
-11 0 -15 -6 -11 -20 3 -11 0 -23 -5 -27 -7 -4 -8 -1 -3 7 6 10 4 12 -9 7 -9
-4 -15 -3 -12 2 3 5 -1 14 -8 20 -17 14 -29 0 -20 -24 5 -11 0 -18 -15 -22
-18 -4 -19 -8 -9 -20 15 -19 32 -47 53 -93 21 -43 32 -155 16 -164 -16 -10
-14 -44 6 -88 15 -34 20 -38 54 -38 21 0 41 5 44 10 3 6 17 10 31 10 13 0 24
6 24 12 0 7 11 1 25 -14 14 -15 25 -31 25 -36 0 -17 39 -44 74 -52 41 -9 59 5
24 19 -21 9 -21 10 10 10 34 1 70 -18 107 -55 12 -12 28 -23 36 -26 12 -4 12
-7 0 -22 -13 -15 -12 -21 2 -45 9 -16 14 -31 11 -34 -11 -10 7 -47 28 -58 16
-9 24 -7 41 9 21 19 42 25 135 38 28 5 42 3 42 -5 0 -6 -4 -11 -10 -11 -5 0
-19 -9 -31 -21 -15 -15 -24 -18 -32 -10 -17 17 -29 13 -22 -8 4 -14 1 -19 -12
-17 -13 1 -19 -7 -21 -26 -3 -24 2 -30 35 -45 39 -18 73 -42 73 -52 0 -3 -26
-6 -57 -6 l-58 0 -3 -41 -3 -41 62 -6 c85 -7 98 -30 22 -39 -31 -4 -63 -14
-72 -21 -9 -8 -27 -17 -41 -21 -28 -7 -74 -72 -66 -93 4 -10 16 -12 43 -7 21
4 43 11 49 16 8 5 14 3 18 -7 3 -9 18 -15 35 -15 16 0 33 -4 36 -10 3 -5 14
-10 24 -10 12 0 20 -9 24 -25 4 -25 4 -25 -20 -10 -13 9 -48 20 -79 26 -52 10
-57 9 -85 -15 -31 -27 -63 -33 -88 -17 -8 5 -24 6 -36 1 -22 -8 -75 11 -110
40 -17 14 -18 13 -13 -2 4 -10 1 -19 -8 -22 -8 -3 -13 -2 -10 3 3 5 -1 15 -10
22 -12 10 -17 10 -23 1 -5 -9 -11 -5 -19 12 -8 19 -17 24 -34 20 -83 -18 -88
-17 -117 10 -31 29 -45 23 -46 -19 0 -16 -6 -20 -32 -19 -18 1 -33 -2 -33 -7
0 -5 -17 0 -37 11 -47 25 -71 27 -49 4 19 -18 21 -34 4 -34 -19 0 -58 42 -58
62 0 11 -4 16 -10 13 -5 -3 -10 -26 -10 -51 0 -38 3 -46 25 -54 14 -5 26 -17
27 -27 0 -10 2 -23 2 -30 1 -7 7 -18 14 -25 19 -19 14 -42 -10 -53 -13 -6 -24
-20 -26 -32 -2 -14 -13 -25 -28 -29 -13 -3 -21 -10 -18 -15 3 -5 -2 -6 -10 -3
-23 9 -40 -34 -41 -108 -2 -64 0 -68 21 -68 18 0 23 6 26 33 2 17 -2 43 -9 56
-16 33 -5 47 17 21 24 -28 80 -28 80 0 0 21 -24 28 -35 10 -10 -15 -35 -12
-35 5 0 9 9 15 24 15 13 0 29 6 35 14 9 11 32 13 99 8 110 -6 132 -14 132 -47
0 -25 -23 -35 -35 -15 -7 11 -58 14 -68 4 -3 -4 -2 -14 2 -23 24 -44 -54 -68
-91 -28 -10 11 -19 14 -23 7 -3 -5 -17 -10 -31 -10 -13 0 -24 -6 -24 -13 0 -6
-13 -25 -29 -40 -22 -21 -36 -26 -54 -22 -19 5 -25 2 -30 -14 -3 -12 -12 -21
-20 -21 -8 0 -17 -10 -20 -22 -5 -19 -8 -20 -23 -7 -10 8 -15 9 -11 3 4 -7 1
-17 -7 -23 -8 -7 -12 -20 -9 -30 4 -16 -1 -19 -32 -18 -20 1 -40 -5 -44 -12
-6 -9 -10 -8 -13 6 -3 10 -9 27 -13 38 -6 16 -5 17 4 9 26 -24 111 43 111 87
0 14 7 40 15 57 15 30 15 32 -11 62 -15 16 -31 30 -35 30 -17 0 -37 -46 -32
-72 6 -32 19 -37 26 -10 4 13 5 14 6 1 1 -20 -50 -68 -56 -52 -3 8 -15 6 -40
-8 -25 -14 -39 -17 -46 -10 -18 18 -27 13 -42 -21 -9 -22 -10 -38 -4 -50 10
-19 -12 -82 -33 -94 -23 -15 -70 -11 -76 5 -13 36 -69 78 -135 100 -51 18 -71
21 -80 12 -24 -24 -37 -12 -37 34 0 42 -11 58 -25 35 -3 -5 -17 -10 -31 -10
-19 0 -24 -5 -25 -27 0 -16 -3 -21 -6 -13 -15 45 -15 46 -23 25 -4 -11 -12
-21 -19 -21 -25 -3 -25 -5 -1 -19 16 -9 20 -15 10 -15 -8 -1 -25 -3 -38 -4
-16 -2 -28 6 -40 26 -9 15 -20 28 -24 28 -4 0 -8 12 -8 27 0 14 -8 35 -17 45
-14 16 -15 21 -4 27 9 6 10 14 5 22 -5 8 -11 34 -15 59 l-6 45 -3 -40 -3 -40
-6 48 c-3 26 -9 46 -12 45 -3 -2 -13 3 -22 11 -10 8 -17 9 -17 3 0 -6 5 -14
10 -17 7 -4 7 -13 0 -26 -14 -25 -30 -24 -30 2 0 11 -7 27 -15 35 -13 13 -16
13 -21 1 -3 -8 -4 -18 -3 -23 1 -5 1 -24 0 -41 -1 -35 -21 -47 -21 -14 0 20
-17 37 -27 27 -3 -3 6 -21 21 -40 14 -19 26 -39 26 -45 0 -21 -39 -11 -65 16
-22 25 -27 26 -46 15 -12 -8 -18 -9 -14 -3 3 7 -2 11 -14 11 -11 0 -23 -5 -27
-11 -4 -7 -23 -9 -49 -5 -35 4 -50 1 -77 -18 -31 -21 -36 -22 -45 -7 -8 13
-10 12 -9 -8 1 -18 -5 -24 -22 -26 -18 -1 -21 2 -16 19 3 12 12 26 20 32 7 6
11 20 8 31 -7 26 22 56 47 48 11 -4 19 -2 19 4 0 6 11 11 25 11 15 0 25 6 25
14 0 11 -7 13 -30 6 -16 -5 -34 -12 -41 -15 -14 -9 -3 31 17 59 8 12 9 22 3
30 -50 59 -59 74 -59 97 0 15 -7 32 -15 39 -13 11 -15 6 -16 -36 -1 -27 -4
-39 -6 -26 -2 12 -8 22 -13 22 -5 0 -15 3 -24 6 -11 4 -16 1 -16 -10 0 -10 -9
-16 -23 -16 -13 0 -28 -5 -34 -11 -8 -8 -21 -8 -47 2 -31 11 -38 11 -55 -5
-11 -10 -18 -22 -16 -27 3 -4 0 -11 -6 -15 -8 -4 -9 -3 -5 4 8 14 -20 12 -43
-2 -10 -7 -12 -5 -6 4 5 8 3 11 -6 8 -8 -3 -12 -12 -11 -19 2 -8 0 -11 -4 -7
-4 4 -14 2 -22 -5 -13 -10 -14 -9 -8 1 4 7 -6 5 -26 -6 -18 -10 -33 -24 -33
-30 0 -19 -70 -49 -93 -41 -13 5 -25 3 -32 -7 -13 -15 -40 -19 -40 -6 0 17 54
63 81 69 22 4 35 16 50 45 11 22 28 42 38 45 13 3 17 14 15 43 -1 21 -5 44
-10 51 -6 12 -5 12 9 0 9 -7 17 -27 17 -43 0 -23 4 -28 18 -24 9 3 29 8 44 12
l28 6 -28 27 c-16 14 -32 38 -35 53 -8 32 -45 48 -61 26 -8 -11 -22 -14 -46
-10 l-35 5 24 -27 c24 -26 24 -27 7 -44 -11 -9 -16 -11 -12 -4 10 16 -17 42
-45 42 -19 0 -21 -4 -16 -30 5 -23 1 -35 -19 -55 -14 -14 -27 -25 -30 -25 -2
0 -17 -8 -31 -17 -14 -10 -37 -19 -50 -21 -12 -1 -40 -12 -60 -24 -20 -12 -33
-17 -29 -10 11 18 -5 14 -19 -4 -6 -9 -18 -15 -25 -12 -7 2 20 28 61 58 90 66
98 76 99 117 0 26 10 41 56 80 60 52 88 64 147 64 37 0 46 6 85 53 7 9 11 20
7 25 -9 16 7 41 26 41 11 0 30 -7 43 -15 22 -15 25 -14 55 14 18 17 31 31 30
33 -1 2 9 20 21 41 13 21 24 53 26 70 1 18 10 46 18 62 9 17 16 35 16 41 0 6
7 18 16 25 9 7 20 23 25 35 l8 22 57 -20 c45 -16 61 -18 76 -9 10 6 47 11 83
11 l66 0 49 51 c28 28 50 56 50 61 0 11 38 43 88 74 18 11 50 42 70 70 47 62
78 67 148 27 27 -16 62 -30 79 -31 16 -1 33 -6 39 -12 11 -11 61 13 74 35 7
14 12 13 35 -5 15 -12 31 -18 37 -15 5 3 10 -3 10 -14 0 -10 -5 -21 -11 -23
-15 -5 12 -98 29 -98 7 0 21 13 30 30 9 16 22 30 28 30 6 0 19 9 29 20 15 17
31 20 96 20 43 0 81 -4 84 -10 3 -5 19 -10 35 -10 19 0 33 -7 40 -20 13 -24
61 -50 93 -50 27 0 61 33 72 70 11 36 55 90 73 90 8 0 20 7 27 16 12 18 92 27
101 13 3 -5 18 -9 35 -9 33 0 37 17 19 80 -12 42 -75 98 -116 102 -28 3 -29 1
-32 -42 -1 -25 -5 -52 -8 -60 -5 -13 -7 -13 -15 2 -5 9 -17 14 -28 11 -14 -3
-25 6 -41 36 -13 23 -28 37 -34 34 -6 -4 -5 0 2 9 11 14 11 16 -4 14 -9 -1
-21 -10 -26 -20 -8 -14 -3 -25 21 -50 17 -18 31 -39 31 -47 0 -8 6 -21 13 -28
7 -9 8 -12 0 -7 -15 8 -66 -53 -55 -68 13 -17 9 -41 -8 -41 -8 0 -15 8 -15 17
0 25 -5 27 -76 37 -14 2 -4 34 13 39 25 6 23 21 -4 31 -16 6 -26 4 -34 -7 -7
-9 -16 -12 -25 -7 -11 6 -12 5 -1 -6 16 -18 15 -49 -2 -49 -7 0 -16 -9 -19
-20 -5 -18 -8 -19 -34 -8 -15 6 -35 19 -43 28 -8 9 -22 19 -30 22 -18 7 -58
-25 -83 -64 -12 -18 -26 -28 -42 -28 -14 0 -25 -4 -25 -10 0 -24 -21 -7 -27
21 -3 19 -14 34 -25 36 -25 7 -23 14 18 54 20 18 49 53 65 76 22 31 34 40 49
36 12 -3 22 1 26 11 4 10 18 16 38 16 18 0 38 6 45 13 11 10 12 9 6 -3 -7 -12
-6 -13 6 -4 8 6 26 11 42 10 16 -1 27 4 27 11 0 7 -7 10 -15 7 -8 -4 -15 -1
-15 5 0 6 -5 11 -11 11 -5 0 -8 -4 -5 -8 3 -5 -1 -9 -9 -9 -8 0 -12 4 -9 9 3
4 0 8 -7 8 -10 0 -10 3 -1 12 9 9 17 9 34 0 41 -20 72 -18 91 5 10 13 27 23
38 23 10 0 19 5 19 10 0 6 10 10 23 10 23 0 107 57 107 72 0 4 7 8 15 8 7 0
18 6 22 13 19 31 154 48 196 25z m-1043 -28 c-6 -11 -13 -20 -16 -20 -2 0 0 9
6 20 6 11 13 20 16 20 2 0 0 -9 -6 -20z m1304 -36 c3 -8 2 -12 -4 -9 -6 3 -10
10 -10 16 0 14 7 11 14 -7z m-694 -19 c0 -8 -7 -15 -15 -15 -9 0 -12 6 -9 15
4 8 10 15 15 15 5 0 9 -7 9 -15z m-40 -49 c0 -2 -7 -9 -15 -16 -12 -10 -15
-10 -15 4 0 9 7 16 15 16 8 0 15 -2 15 -4z m570 -15 c0 -6 -4 -12 -8 -15 -5
-3 -9 1 -9 9 0 8 4 15 9 15 4 0 8 -4 8 -9z m-790 -46 c0 -8 -9 -19 -19 -25
-30 -15 -33 -12 -15 15 18 28 34 33 34 10z m780 11 c0 -3 -4 -8 -10 -11 -5 -3
-10 -1 -10 4 0 6 5 11 10 11 6 0 10 -2 10 -4z m-1451 -148 c1 -10 -29 -6 -47
6 -8 5 -18 4 -25 -3 -6 -6 -32 -11 -57 -11 -25 0 -52 -6 -59 -12 -10 -11 -11
-10 -6 5 6 13 19 17 55 17 27 0 52 5 56 11 3 6 19 9 35 7 15 -2 28 -2 27 1 0
3 0 11 2 16 1 10 18 -22 19 -37z m1791 6 c0 -8 -6 -11 -15 -8 -8 4 -15 2 -15
-3 0 -9 -46 -10 -55 -1 -9 8 57 37 72 31 7 -3 13 -11 13 -19z m-1210 -11 c0
-21 -3 -24 -9 -14 -5 8 -7 20 -4 28 8 21 13 15 13 -14z m1035 -22 c-3 -6 -11
-11 -17 -11 -6 0 -6 6 2 15 14 17 26 13 15 -4z m-2035 -10 c0 -11 -5 -23 -10
-26 -6 -4 -8 -11 -5 -16 3 -5 0 -6 -8 -3 -10 3 -18 -4 -25 -23 -10 -27 -10
-27 -11 -4 -1 24 37 91 52 91 4 0 7 -9 7 -19z m194 4 c-9 -22 -44 -40 -44 -22
0 17 20 37 37 37 7 0 10 -7 7 -15z m739 -20 c-3 -9 -8 -14 -10 -11 -3 3 -2 9
2 15 9 16 15 13 8 -4z m-794 -112 c2 -70 0 -83 -13 -83 -12 0 -16 11 -16 49 0
28 -4 53 -10 56 -10 6 -14 48 -5 56 2 3 12 5 23 5 16 0 18 -10 21 -83z m1873
-5 c-15 -15 -26 -4 -18 18 5 13 9 15 18 6 9 -9 9 -15 0 -24z m-997 -6 c0 -18
-20 -15 -23 4 -3 10 1 15 10 12 7 -3 13 -10 13 -16z m463 0 c2 -7 -3 -12 -12
-12 -9 0 -16 7 -16 16 0 17 22 14 28 -4z m607 -52 c-3 -5 -12 -7 -20 -3 -21 7
-19 13 6 13 11 0 18 -4 14 -10z m-2303 -38 c-17 -5 -15 -22 4 -22 8 0 12 -5 9
-10 -10 -15 -35 8 -35 31 0 13 5 17 17 12 11 -4 12 -8 5 -11z m-192 -7 c29
-15 36 -26 24 -37 -3 -4 -7 -30 -8 -60 -2 -29 -10 -67 -19 -85 -10 -18 -17
-39 -17 -48 0 -17 -31 -20 -47 -4 -8 8 -18 6 -36 -6 -15 -9 -31 -14 -37 -10
-13 8 -13 42 1 51 6 3 9 14 6 24 -4 16 -1 17 19 10 18 -7 22 -6 17 5 -7 19
-30 19 -67 0 -38 -20 -40 -19 -17 6 10 11 29 40 41 62 19 35 91 107 107 107 2
0 17 -7 33 -15z m155 -57 c-2 -24 -4 -45 -4 -47 -1 -2 -8 2 -17 10 -12 10 -17
10 -23 0 -6 -10 -10 -9 -15 4 -8 21 2 38 16 29 7 -4 8 -2 4 5 -9 14 11 41 29
41 9 0 12 -14 10 -42z m51 -30 c5 4 5 3 1 -2 -12 -15 -34 -15 -34 0 0 9 4 11
12 4 7 -5 16 -6 21 -2z m144 3 c0 -6 -4 -13 -10 -16 -5 -3 -10 1 -10 9 0 9 5
16 10 16 6 0 10 -4 10 -9z m-150 -181 c0 -5 -2 -10 -4 -10 -3 0 -8 5 -11 10
-3 6 -1 10 4 10 6 0 11 -4 11 -10z m-30 -110 c0 -5 -5 -10 -11 -10 -5 0 -7 5
-4 10 3 6 8 10 11 10 2 0 4 -4 4 -10z m-321 -86 c3 -16 1 -17 -13 -5 -19 16
-21 34 -3 29 6 -3 14 -13 16 -24z m-279 -19 c0 -8 -7 -15 -15 -15 -9 0 -19
-10 -24 -22 -11 -28 -58 -84 -65 -77 -9 8 13 72 32 95 28 34 72 45 72 19z
m3508 -12 c6 -19 -25 -16 -32 3 -4 11 -1 14 11 12 9 -2 18 -9 21 -15z m-249
-89 c-12 -14 -14 -14 -20 3 -4 11 -1 23 10 31 13 11 17 10 19 -3 2 -9 -2 -23
-9 -31z m-3055 -35 c-3 -5 -13 -9 -22 -9 -20 -1 -54 -25 -46 -33 3 -3 -2 -3
-13 -1 -13 4 -22 -3 -31 -24 -11 -26 -16 -28 -59 -26 -40 3 -52 -1 -75 -23
-15 -14 -25 -31 -21 -36 3 -6 1 -7 -5 -3 -6 3 -13 2 -17 -3 -3 -5 -14 -9 -25
-8 -10 1 -16 5 -13 11 4 5 -1 7 -12 2 -18 -7 -18 -6 -1 13 10 11 24 17 32 14
8 -3 14 0 14 5 0 6 11 23 25 38 14 15 25 31 25 35 0 12 82 48 121 53 19 2 45
9 59 14 27 10 74 -4 64 -19z m2426 -73 c0 -19 -27 -28 -33 -11 -7 15 1 25 20
25 7 0 13 -6 13 -14z m781 -76 c16 -15 29 -33 29 -40 0 -7 -16 5 -35 26 -19
21 -35 45 -34 53 0 12 2 13 6 2 3 -7 18 -25 34 -41z m-851 -21 c0 -17 -20 -49
-30 -49 -14 0 -12 34 2 48 15 15 28 15 28 1z m-1913 -41 c4 -28 -6 -18 -12 12
-2 12 -1 20 2 16 4 -4 8 -16 10 -28z m-912 10 c5 4 5 1 1 -6 -6 -10 -11 -10
-22 -1 -8 6 -14 14 -14 16 0 3 6 0 13 -6 8 -6 18 -7 22 -3z m134 -55 c-19 -21
-20 -25 -6 -20 13 5 17 3 14 -5 -2 -7 -11 -11 -18 -9 -8 2 -22 3 -33 3 -16 -1
-15 3 9 29 37 38 69 41 34 2z m671 1 c0 -8 -4 -14 -8 -14 -4 0 -8 9 -8 19 0
11 4 17 8 15 4 -3 8 -12 8 -20z m44 10 c3 -8 2 -12 -4 -9 -6 3 -10 10 -10 16
0 14 7 11 14 -7z m-350 -41 c4 -10 4 -15 1 -11 -11 10 -56 -35 -50 -50 3 -8 0
-10 -7 -6 -7 5 -9 2 -5 -9 4 -11 2 -14 -9 -10 -9 3 -29 -6 -47 -23 -17 -16
-24 -20 -14 -8 9 11 14 23 11 27 -4 3 5 26 20 51 21 36 33 46 59 49 17 2 33 5
33 5 1 1 5 -6 8 -15z m266 -123 c-22 -17 -25 -17 -29 -3 -4 22 29 47 43 32 8
-7 4 -16 -14 -29z m-400 25 c0 -2 -6 -8 -13 -14 -10 -8 -14 -7 -14 2 0 8 6 14
14 14 7 0 13 -1 13 -2z m786 -82 c-10 -10 -19 5 -10 18 6 11 8 11 12 0 2 -7 1
-15 -2 -18z m-841 -72 c7 -23 60 -71 79 -71 11 0 14 -9 11 -37 -2 -21 -4 -41
-4 -45 -1 -14 -51 -8 -51 5 0 8 -10 22 -21 33 -26 23 -41 59 -44 102 -2 35 19
45 30 13z m2125 -11 c0 -5 -2 -10 -4 -10 -3 0 -8 5 -11 10 -3 6 -1 10 4 10 6
0 11 -4 11 -10z m-70 -25 c0 -8 -4 -15 -10 -15 -5 0 -7 7 -4 15 4 8 8 15 10
15 2 0 4 -7 4 -15z m40 5 c0 -5 -2 -10 -4 -10 -3 0 -8 5 -11 10 -3 6 -1 10 4
10 6 0 11 -4 11 -10z m-925 -10 c4 -6 -15 -10 -49 -10 -31 0 -56 -4 -56 -9 0
-14 -30 -22 -48 -12 -21 12 -12 16 63 30 69 12 83 13 90 1z m371 -25 c-15 -11
-17 -17 -7 -29 7 -8 23 -13 36 -12 28 4 57 -13 38 -20 -7 -3 -9 -12 -6 -20 3
-9 -2 -14 -14 -14 -11 0 -23 -3 -27 -7 -11 -11 -36 -12 -36 -2 0 6 -4 7 -10 4
-5 -3 -10 1 -10 10 0 9 5 13 10 10 6 -3 10 -1 10 4 0 23 -33 6 -43 -21 -7 -20
-36 -25 -33 -5 3 17 38 89 51 104 5 7 21 12 35 12 24 0 24 0 6 -14z m-88 -54
c-3 -30 -31 -36 -36 -8 -6 28 5 47 23 41 10 -4 15 -16 13 -33z m-1165 12 c4
-3 -10 -13 -30 -20 -21 -7 -40 -15 -43 -16 -3 -1 -7 3 -10 8 -3 6 11 15 30 22
43 14 45 15 53 6z m-948 -23 c3 -5 -1 -10 -10 -10 -9 0 -13 5 -10 10 3 6 8 10
10 10 2 0 7 -4 10 -10z m2915 -56 c0 -8 -5 -12 -10 -9 -6 4 -8 11 -5 16 9 14
15 11 15 -7z m-2312 -31 c-4 -23 -54 -50 -105 -56 -61 -7 -53 9 12 28 34 10
55 22 55 31 0 8 9 14 21 14 14 0 19 -5 17 -17z m2202 4 c0 -7 -10 -17 -22 -22
-13 -6 -27 -20 -33 -32 -10 -23 -35 -32 -35 -13 0 15 63 80 78 80 6 0 12 -6
12 -13z m200 -19 c0 -16 -3 -17 -20 -8 -11 6 -25 8 -30 5 -12 -7 -32 3 -26 14
3 4 21 7 40 7 28 0 36 -4 36 -18z m1759 -4 c-14 -17 -49 -19 -49 -3 0 6 9 9
20 6 10 -3 19 -2 18 2 -2 16 3 22 12 16 8 -5 7 -11 -1 -21z m-1959 -58 c0 -2
-7 -7 -16 -10 -8 -3 -12 -2 -9 4 6 10 25 14 25 6z m-760 -36 c0 -5 -5 -10 -11
-10 -5 0 -7 5 -4 10 3 6 8 10 11 10 2 0 4 -4 4 -10z m-1806 -385 c23 -35 20
-55 -8 -55 -26 0 -41 34 -30 64 9 22 19 20 38 -9z m2048 -127 c-15 -15 -27 14
-17 40 6 15 8 15 18 -6 7 -16 7 -26 -1 -34z m2518 -42 c0 -2 -7 -9 -15 -16
-12 -10 -15 -10 -15 4 0 9 7 16 15 16 8 0 15 -2 15 -4z m-101 -27 c-7 -4 -17
-5 -22 -2 -5 3 -3 9 4 14 7 4 17 5 22 2 5 -3 3 -9 -4 -14z m-79 -13 c0 -3 -4
-8 -10 -11 -5 -3 -10 -1 -10 4 0 6 5 11 10 11 6 0 10 -2 10 -4z m-181 -98 c1
-12 -6 -18 -19 -18 -23 0 -28 38 -8 58 10 10 14 9 20 -5 3 -10 7 -26 7 -35z
m35 44 c2 -4 -4 -8 -14 -8 -10 0 -16 4 -14 8 3 4 9 8 14 8 5 0 11 -4 14 -8z
m30 -7 c3 -8 1 -15 -4 -15 -6 0 -10 7 -10 15 0 8 2 15 4 15 2 0 6 -7 10 -15z
m-4607 -51 c-3 -3 -12 -4 -19 -1 -8 3 -5 6 6 6 11 1 17 -2 13 -5z m4658 -54
c-3 -5 -10 -10 -16 -10 -5 0 -9 5 -9 10 0 6 7 10 16 10 8 0 12 -4 9 -10z m98
-377 c-7 -2 -19 -2 -25 0 -7 3 -2 5 12 5 14 0 19 -2 13 -5z m-635 -156 c6 -6
12 -25 14 -42 3 -32 38 -50 38 -21 0 10 9 16 24 16 15 0 34 12 49 30 30 35 43
38 50 11 5 -21 -5 -43 -19 -40 -5 1 -16 1 -23 0 -12 -1 -12 -4 -3 -13 18 -18
14 -35 -10 -43 -14 -4 -18 -8 -10 -12 6 -2 12 -10 12 -17 0 -14 -53 -64 -88
-84 -24 -14 -152 -14 -152 0 0 4 -35 8 -78 8 -87 0 -104 10 -133 78 -8 17 -18
32 -23 32 -4 0 -3 7 4 15 7 8 18 15 25 15 6 0 20 9 30 20 10 11 31 20 46 20
15 0 31 5 34 10 3 6 17 10 30 10 13 0 26 4 29 9 9 14 142 13 154 -2z"/>
<path d="M2998 4113 c6 -2 9 -10 6 -15 -4 -7 -2 -8 5 -4 13 9 5 26 -12 25 -9
0 -8 -2 1 -6z"/>
<path d="M1990 3880 c0 -5 5 -10 10 -10 6 0 10 5 10 10 0 6 -4 10 -10 10 -5 0
-10 -4 -10 -10z"/>
<path d="M1930 3810 c0 -5 7 -10 15 -10 8 0 15 5 15 10 0 6 -7 10 -15 10 -8 0
-15 -4 -15 -10z"/>
<path d="M3381 3794 c0 -11 3 -14 6 -6 3 7 2 16 -1 19 -3 4 -6 -2 -5 -13z"/>
<path d="M3315 3790 c3 -5 8 -10 11 -10 2 0 4 5 4 10 0 6 -5 10 -11 10 -5 0
-7 -4 -4 -10z"/>
<path d="M3190 3615 c0 -18 4 -22 20 -18 11 3 20 11 20 18 0 7 -9 15 -20 18
-16 4 -20 0 -20 -18z"/>
<path d="M3166 3601 c-3 -5 2 -15 12 -22 15 -12 16 -12 5 2 -7 9 -10 19 -6 22
3 4 4 7 0 7 -3 0 -8 -4 -11 -9z"/>
<path d="M2829 3538 c-6 -22 -5 -37 4 -35 6 1 11 -3 12 -10 0 -6 4 -15 9 -20
5 -5 6 -3 2 5 -5 8 1 12 21 13 l28 1 -30 7 c-21 5 -29 12 -27 24 2 9 -2 17 -8
17 -5 0 -10 -1 -11 -2z"/>
<path d="M3600 3266 c0 -9 7 -16 16 -16 9 0 14 5 12 12 -6 18 -28 21 -28 4z"/>
<path d="M3756 3195 c-3 -8 -3 -22 0 -30 4 -8 2 -21 -3 -28 -33 -42 -5 -97 50
-97 47 1 71 23 71 66 0 40 -35 79 -62 69 -12 -4 -12 -2 -4 8 7 8 9 17 5 20
-12 13 -51 7 -57 -8z"/>
<path d="M3186 3135 c-34 -18 -107 -20 -124 -3 -16 16 -19 10 -24 -37 l-3 -40
59 -3 c39 -2 64 1 75 11 9 8 24 17 34 20 9 4 17 10 16 14 -3 20 2 27 11 13 5
-8 12 -12 15 -8 6 6 -15 48 -25 48 -3 0 -18 -7 -34 -15z"/>
<path d="M2713 3103 c-15 -6 -18 -104 -4 -131 5 -9 12 -25 15 -34 4 -14 17
-18 60 -18 30 0 58 -4 61 -10 3 -5 24 -10 45 -10 21 0 42 5 45 10 10 15 23 12
28 -7 3 -14 4 -13 3 2 -1 11 6 25 14 32 13 10 13 12 -4 19 -11 4 -28 2 -40 -6
-19 -12 -20 -12 -7 3 8 10 10 24 6 34 -5 10 -7 24 -6 31 1 8 -15 12 -54 12
-49 0 -60 4 -91 33 -43 39 -55 46 -71 40z"/>
<path d="M2826 3061 c-4 -5 -2 -12 3 -15 5 -4 12 -2 15 3 4 5 2 12 -3 15 -5 4
-12 2 -15 -3z"/>
<path d="M2935 3050 c3 -5 8 -10 11 -10 2 0 4 5 4 10 0 6 -5 10 -11 10 -5 0
-7 -4 -4 -10z"/>
<path d="M2975 3040 c-3 -5 3 -10 14 -10 12 0 21 5 21 10 0 6 -6 10 -14 10 -8
0 -18 -4 -21 -10z"/>
<path d="M2955 2999 c-4 -6 -3 -15 3 -21 6 -6 11 -4 15 6 7 18 -9 31 -18 15z"/>
<path d="M3820 2980 c0 -5 7 -10 15 -10 8 0 15 5 15 10 0 6 -7 10 -15 10 -8 0
-15 -4 -15 -10z"/>
<path d="M2456 2955 c-15 -8 -40 -15 -55 -15 -14 0 -34 -7 -44 -15 -11 -7 -24
-12 -31 -9 -7 3 -25 -2 -41 -10 l-28 -15 37 -7 c22 -4 48 -2 62 5 14 6 34 11
44 11 11 0 20 5 20 10 0 6 9 10 20 10 11 0 20 5 20 11 0 5 4 8 8 5 4 -2 13 4
20 15 15 23 7 24 -32 4z"/>
<path d="M3050 2899 c0 -11 4 -18 10 -14 5 3 7 12 3 20 -7 21 -13 19 -13 -6z"/>
<path d="M2117 2823 c-4 -3 -7 -19 -7 -34 0 -26 -15 -47 -26 -36 -5 5 -11 28
-13 50 -2 19 -32 3 -70 -38 -23 -25 -37 -45 -32 -45 6 0 11 -7 11 -15 0 -8 10
-20 22 -26 14 -8 18 -14 10 -17 -7 -2 -12 -23 -12 -58 0 -53 0 -54 30 -54 43
0 100 -35 100 -61 0 -19 13 -2 25 36 8 21 9 37 3 43 -5 5 -8 20 -6 33 2 18 8
23 26 21 18 -3 22 2 22 22 0 13 6 26 13 29 10 3 10 9 0 26 -7 11 -13 27 -13
34 0 15 -58 97 -69 97 -4 0 -11 -3 -14 -7z"/>
<path d="M1430 2780 c0 -5 5 -10 10 -10 6 0 10 5 10 10 0 6 -4 10 -10 10 -5 0
-10 -4 -10 -10z"/>
<path d="M3325 2690 c-3 -5 3 -10 15 -10 12 0 18 5 15 10 -3 6 -10 10 -15 10
-5 0 -12 -4 -15 -10z"/>
<path d="M3280 2670 c0 -5 4 -10 9 -10 6 0 13 5 16 10 3 6 -1 10 -9 10 -9 0
-16 -4 -16 -10z"/>
<path d="M3655 2650 c3 -5 12 -10 19 -10 8 0 19 -7 26 -15 7 -8 20 -15 29 -15
9 0 -2 12 -24 25 -42 26 -60 32 -50 15z"/>
<path d="M2225 2610 c3 -5 8 -10 11 -10 2 0 4 5 4 10 0 6 -5 10 -11 10 -5 0
-7 -4 -4 -10z"/>
<path d="M1380 2594 c0 -10 43 -45 48 -39 6 6 -28 45 -40 45 -4 0 -8 -3 -8 -6z"/>
<path d="M1560 2515 c0 -8 5 -15 10 -15 6 0 10 7 10 15 0 8 -4 15 -10 15 -5 0
-10 -7 -10 -15z"/>
<path d="M2200 2466 c0 -8 5 -18 10 -21 6 -3 10 3 10 14 0 12 -4 21 -10 21 -5
0 -10 -6 -10 -14z"/>
<path d="M3100 2180 c0 -11 6 -20 14 -20 21 0 31 21 15 31 -22 14 -29 11 -29
-11z"/>
<path d="M2495 2120 c4 -6 11 -8 16 -5 14 9 11 15 -7 15 -8 0 -12 -5 -9 -10z"/>
<path d="M1362 3188 c-6 -8 -6 -22 -1 -35 12 -31 15 -29 15 12 0 40 0 39 -14
23z"/>
<path d="M4700 470 c0 -5 5 -10 11 -10 5 0 7 5 4 10 -3 6 -8 10 -11 10 -2 0
-4 -4 -4 -10z"/>
<path d="M4705 430 c3 -5 10 -10 16 -10 5 0 9 5 9 10 0 6 -7 10 -16 10 -8 0
-12 -4 -9 -10z"/>
<path d="M4755 430 c3 -5 8 -10 11 -10 2 0 4 5 4 10 0 6 -5 10 -11 10 -5 0 -7
-4 -4 -10z"/>
<path d="M4680 400 c0 -5 5 -10 11 -10 5 0 7 5 4 10 -3 6 -8 10 -11 10 -2 0
-4 -4 -4 -10z"/>
<path d="M4754 396 c-3 -9 -9 -14 -13 -12 -4 3 -13 1 -21 -5 -11 -6 -2 -9 29
-9 40 0 42 1 30 18 -7 9 -15 19 -16 21 -1 2 -5 -4 -9 -13z"/>
<path d="M5044 318 c-22 -33 -34 -62 -34 -79 0 -11 -4 -19 -10 -19 -5 0 -10
-20 -10 -45 0 -25 5 -45 10 -45 6 0 10 -7 10 -15 0 -18 70 -86 82 -79 4 3 8 0
8 -5 0 -6 5 -11 10 -11 18 0 11 97 -9 132 -13 23 -18 50 -17 91 1 43 -3 62
-15 73 -14 12 -19 13 -25 2z"/>
<path d="M4700 279 c0 -5 5 -7 10 -4 6 3 10 8 10 11 0 2 -4 4 -10 4 -5 0 -10
-5 -10 -11z"/>
</g>
</svg>
